<svg height="496pt" viewBox="0 0 496 496" width="496pt" xmlns="http://www.w3.org/2000/svg"><path d="m85.121094 138.671875c8.902344-25.136719 28.421875-44.65625 53.550781-53.550781l5.328125-1.890625v-49.359375l-10 2.578125c-47.832031 12.335937-85.214844 49.71875-97.550781 97.550781l-2.585938 10h49.367188zm-30.128906-10.671875c12.039062-34.097656 38.910156-60.96875 73.007812-73.007812v17.097656c-25.375 10.558594-45.34375 30.535156-55.910156 55.910156zm0 0"/><path d="m85.121094 197.328125-1.890625-5.328125h-49.367188l2.578125 10c12.335938 47.839844 49.71875 85.222656 97.550782 97.558594l10.007812 2.578125v-49.367188l-5.328125-1.890625c-25.136719-8.894531-44.648437-28.414062-53.550781-53.550781zm42.878906 83.679687c-34.097656-12.039062-60.96875-38.910156-73.007812-73.007812h17.097656c10.566406 25.375 30.535156 45.351562 55.910156 55.910156zm0 0"/><path d="m302.136719 192h-49.367188l-1.882812 5.328125c-8.902344 25.136719-28.421875 44.65625-53.550781 53.550781l-5.335938 1.890625v49.367188l10-2.578125c47.832031-12.335938 85.214844-49.71875 97.550781-97.558594zm-94.136719 89.007812v-17.097656c25.375-10.558594 45.34375-30.535156 55.910156-55.910156h17.097656c-12.039062 34.097656-38.910156 60.96875-73.007812 73.007812zm0 0"/><path d="m250.878906 138.671875 1.890625 5.328125h49.367188l-2.578125-10c-12.335938-47.839844-49.71875-85.214844-97.550782-97.550781l-10.007812-2.578125v49.359375l5.328125 1.890625c25.136719 8.894531 44.648437 28.414062 53.550781 53.550781zm-42.878906-83.679687c34.097656 12.046874 60.96875 38.917968 73.007812 73.007812h-17.097656c-10.566406-25.375-30.535156-45.351562-55.910156-55.910156zm0 0"/><path d="m144 129.871094v76.257812l63.542969-38.128906zm16 28.257812 16.457031 9.871094-16.457031 9.871094zm0 0"/><path d="m160 64h16v16h-16zm0 0"/><path d="m64 160h16v16h-16zm0 0"/><path d="m160 256h16v16h-16zm0 0"/><path d="m256 160h16v16h-16zm0 0"/><path d="m111.167969 123.886719c-9.929688 12.777343-15.167969 28.023437-15.167969 44.113281 0 39.695312 32.296875 72 72 72 16.097656 0 31.34375-5.246094 44.113281-15.167969l-9.816406-12.632812c-9.9375 7.722656-21.800781 11.800781-34.296875 11.800781-30.871094 0-56-25.121094-56-56 0-12.496094 4.078125-24.359375 11.808594-34.296875zm0 0"/><path d="m224.832031 212.113281c9.929688-12.777343 15.167969-28.023437 15.167969-44.113281 0-39.695312-32.296875-72-72-72-16.097656 0-31.34375 5.246094-44.113281 15.167969l9.816406 12.632812c9.9375-7.722656 21.800781-11.800781 34.296875-11.800781 30.871094 0 56 25.121094 56 56 0 12.496094-4.078125 24.359375-11.808594 34.296875zm0 0"/><path d="m472 192h-137.921875c1.136719-7.863281 1.921875-15.832031 1.921875-24 0-92.640625-75.367188-168-168-168s-168 75.359375-168 168c0 92.632812 75.367188 168 168 168h304c4.414062 0 8 3.585938 8 8s-3.585938 8-8 8h-448c-13.230469 0-24 10.769531-24 24v120h464v-128h8c13.230469 0 24-10.769531 24-24v-128c0-13.230469-10.769531-24-24-24zm-24 192h-16v-16h16zm-136 64v-48h88v48zm-112 0v-48h96v48zm-104 0v-48h88v48zm304-64v-16h16v16zm-16 0h-16v-16h16zm-32 0h-16v-16h16zm-32 0h-16v-16h16zm-32 0h-16v-16h16zm-32 0h-16v-16h16zm-32 0h-16v-16h16zm-32 0h-16v-16h16zm-32 0h-16v-16h16zm-32 0h-16v-16h16zm-32 0h-16v-16h16zm-32 0h-16v-16h16zm16 16v48h-64v-48zm-16 64v16h-16v-16zm16 0h16v16h-16zm32 0h16v16h-16zm32 0h16v16h-16zm32 0h16v16h-16zm32 0h16v16h-16zm32 0h16v16h-16zm32 0h16v16h-16zm32 0h16v16h-16zm32 0h16v16h-16zm32 0h16v16h-16zm32 0h16v16h-16zm16-16v-48h32v48zm-392-80h8v16h-16v-8c0-4.414062 3.585938-8 8-8zm-8 96h16v16h-16zm416 16v-16h16v16zm-112.441406-240h80.441406v48h-88v-33.921875c2.734375-4.558594 5.257812-9.246094 7.558594-14.078125zm112.441406-16v-16h16v16zm-16 0h-16v-16h16zm-32 0h-16v-16h16zm-88 64h-10.648438c3.726563-3.648438 7.273438-7.472656 10.648438-11.457031zm-8 16v16h-16v-16zm16 0h16v16h-16zm32 0h16v16h-16zm32 0h16v16h-16zm32 0h16v16h-16zm32 0h16v16h-16zm-16-16v-48h64v48zm64-72v8h-16v-16h8c4.414062 0 8 3.59375 8 8zm-128-8v16h-25.800781c1.855469-5.222656 3.449219-10.550781 4.792969-16zm-336-40c0-83.816406 68.183594-152 152-152s152 68.183594 152 152-68.183594 152-152 152-152-68.183594-152-152zm240 142.832031v9.167969h-16.910156c5.832031-2.734375 11.460937-5.800781 16.910156-9.167969zm216 9.167969h-8v-16h16v17.472656c-2.511719-.898437-5.183594-1.472656-8-1.472656zm0 0"/></svg>