<svg height="682.66668pt" viewBox="-21 -21 682.66668 682.66668" width="682.66668pt" xmlns="http://www.w3.org/2000/svg"><path d="m391.488281 69.386719c23.746094 6.671875 90.898438 41.925781 132.433594 102.890625"/><path d="m546.273438 93.726562c-60.4375-60.441406-140.800782-93.726562-226.273438-93.726562-85.480469 0-165.835938 33.285156-226.273438 93.726562-60.441406 60.4375-93.726562 140.800782-93.726562 226.273438s33.285156 165.835938 93.726562 226.273438c60.4375 60.441406 140.792969 93.726562 226.273438 93.726562 85.472656 0 165.835938-33.285156 226.273438-93.726562 60.441406-60.4375 93.726562-140.800782 93.726562-226.273438 0-85.476562-33.285156-165.835938-93.726562-226.273438zm-215.035157 520.917969v-84.933593c0-6.9375-5.617187-12.558594-12.558593-12.558594-6.933594 0-12.558594 5.621094-12.558594 12.558594v84.835937c-152.015625-7.082031-274.304688-129.800781-280.714844-281.988281h82.878906c6.933594 0 12.558594-5.625 12.558594-12.558594s-5.625-12.558594-12.558594-12.558594h-82.878906c6.410156-152.1875 128.699219-274.90625 280.714844-281.988281v83.457031c0 6.941406 5.625 12.558594 12.558594 12.558594 6.941406 0 12.558593-5.617188 12.558593-12.558594v-83.554687c153.238281 5.777343 276.910157 129.019531 283.355469 282.085937h-85.511719c-6.933593 0-12.558593 5.625-12.558593 12.558594s5.625 12.558594 12.558593 12.558594h85.511719c-6.445312 153.066406-130.117188 276.308594-283.355469 282.085937zm0 0"/><path d="m441.078125 300.996094-53.71875-40.574219c-5.539063-4.179687-13.414063-3.082031-17.59375 2.449219s-3.085937 13.414062 2.449219 17.59375l52.355468 39.539062-154.601562 117.632813v-235.277344l23.296875 17.730469c5.523437 4.203125 13.402344 3.128906 17.601563-2.390625 4.199218-5.519531 3.132812-13.398438-2.386719-17.601563l-25.339844-19.277344c-7.261719-5.527343-16.851563-6.445312-25.03125-2.386718-8.179687 4.050781-13.257813 12.234375-13.257813 21.367187v240.398438c0 9.132812 5.078126 17.316406 13.253907 21.367187 3.386719 1.679688 7.015625 2.503906 10.621093 2.503906 5.101563 0 10.15625-1.652343 14.414063-4.890624l157.972656-120.199219c5.980469-4.550781 9.410157-11.472657 9.410157-18.980469 0-7.515625-3.429688-14.429688-9.445313-19.003906zm0 0"/><path d="m530.992188 182.652344c5.730468-3.902344 7.210937-11.71875 3.304687-17.453125-43.335937-63.601563-113.882813-100.734375-139.414063-107.910157-6.671874-1.878906-13.609374 2.019532-15.484374 8.699219-1.878907 6.671875 2.011718 13.605469 8.691406 15.488281 19.40625 5.453126 85.1875 38.777344 125.449218 97.871094 2.433594 3.566406 6.378907 5.488282 10.390626 5.488282 2.4375 0 4.898437-.703126 7.0625-2.183594zm0 0"/><path d="m533.453125 209.355469c-4.195313 5.527343-3.117187 13.402343 2.40625 17.601562l.316406.242188c2.277344 1.726562 4.941407 2.5625 7.589844 2.5625 3.792969 0 7.542969-1.714844 10.011719-4.964844 4.195312-5.523437 3.117187-13.40625-2.40625-17.597656l-.320313-.246094c-5.523437-4.199219-13.40625-3.121094-17.597656 2.402344zm0 0"/><path d="m332.398438 250.089844.320312.238281c2.269531 1.726563 4.941406 2.5625 7.589844 2.5625 3.792968 0 7.539062-1.714844 10.007812-4.964844 4.195313-5.523437 3.121094-13.402343-2.402344-17.597656l-.320312-.246094c-5.523438-4.191406-13.40625-3.113281-17.597656 2.410157-4.199219 5.519531-3.121094 13.402343 2.402344 17.597656zm0 0"/></svg>